912 1388 436
0.075 0 1
0.1 0 1
0.125 0 1
0.325 0 1
0.35 0 1
0.375 0 1
0.625 0 1
0.65 0 1
0.675 0 1
0.875 0 1
0.9 0 1
0.925 0 1
0.05 0.025 0
0.075 0.025 0
0.1 0.025 0
0.125 0.025 0
0.3 0.025 0
0.325 0.025 0
0.35 0.025 0
0.375 0.025 0
0.625 0.025 0
0.65 0.025 0
0.675 0.025 0
0.7 0.025 0
0.875 0.025 0
0.9 0.025 0
0.925 0.025 0
0.95 0.025 0
0.025 0.05 0
0.05 0.05 0
0.075 0.05 0
0.1 0.05 0
0.125 0.05 0
0.15 0.05 0
0.175 0.05 0
0.325 0.05 0
0.35 0.05 0
0.375 0.05 0
0.625 0.05 0
0.65 0.05 0
0.675 0.05 0
0.825 0.05 0
0.85 0.05 0
0.875 0.05 0
0.9 0.05 0
0.925 0.05 0
0.95 0.05 0
0.975 0.05 0
0 0.075 4
0.025 0.075 0
0.05 0.075 0
0.075 0.075 0
0.1 0.075 0
0.125 0.075 0
0.15 0.075 0
0.175 0.075 0
0.2 0.075 0
0.3 0.075 0
0.325 0.075 0
0.35 0.075 0
0.375 0.075 0
0.625 0.075 0
0.65 0.075 0
0.675 0.075 0
0.7 0.075 0
0.8 0.075 0
0.825 0.075 0
0.85 0.075 0
0.875 0.075 0
0.9 0.075 0
0.925 0.075 0
0.95 0.075 0
0.975 0.075 0
1 0.075 2
0 0.1 4
0.025 0.1 0
0.05 0.1 0
0.075 0.1 0
0.1 0.1 0
0.125 0.1 0
0.15 0.1 0
0.175 0.1 0
0.2 0.1 0
0.225 0.1 0
0.25 0.1 0
0.275 0.1 0
0.3 0.1 0
0.325 0.1 0
0.35 0.1 0
0.375 0.1 0
0.625 0.1 0
0.65 0.1 0
0.675 0.1 0
0.7 0.1 0
0.725 0.1 0
0.75 0.1 0
0.775 0.1 0
0.8 0.1 0
0.825 0.1 0
0.85 0.1 0
0.875 0.1 0
0.9 0.1 0
0.925 0.1 0
0.95 0.1 0
0.975 0.1 0
1 0.1 2
0 0.125 4
0.025 0.125 0
0.05 0.125 0
0.075 0.125 0
0.1 0.125 0
0.125 0.125 0
0.15 0.125 0
0.175 0.125 0
0.2 0.125 0
0.225 0.125 0
0.25 0.125 0
0.275 0.125 0
0.3 0.125 0
0.325 0.125 0
0.35 0.125 0
0.375 0.125 0
0.4 0.125 0
0.6 0.125 0
0.625 0.125 0
0.65 0.125 0
0.675 0.125 0
0.7 0.125 0
0.725 0.125 0
0.75 0.125 0
0.775 0.125 0
0.8 0.125 0
0.825 0.125 0
0.85 0.125 0
0.875 0.125 0
0.9 0.125 0
0.925 0.125 0
0.95 0.125 0
0.975 0.125 0
1 0.125 2
0.05 0.15 0
0.075 0.15 0
0.1 0.15 0
0.125 0.15 0
0.15 0.15 0
0.175 0.15 0
0.2 0.15 0
0.225 0.15 0
0.25 0.15 0
0.275 0.15 0
0.3 0.15 0
0.325 0.15 0
0.35 0.15 0
0.375 0.15 0
0.4 0.15 0
0.425 0.15 0
0.475 0.15 0
0.525 0.15 0
0.575 0.15 0
0.6 0.15 0
0.625 0.15 0
0.65 0.15 0
0.675 0.15 0
0.7 0.15 0
0.725 0.15 0
0.75 0.15 0
0.775 0.15 0
0.8 0.15 0
0.825 0.15 0
0.85 0.15 0
0.875 0.15 0
0.9 0.15 0
0.925 0.15 0
0.95 0.15 0
0.05 0.175 0
0.075 0.175 0
0.1 0.175 0
0.125 0.175 0
0.15 0.175 0
0.175 0.175 0
0.2 0.175 0
0.225 0.175 0
0.25 0.175 0
0.275 0.175 0
0.3 0.175 0
0.325 0.175 0
0.35 0.175 0
0.375 0.175 0
0.4 0.175 0
0.425 0.175 0
0.45 0.175 0
0.475 0.175 0
0.5 0.175 0
0.525 0.175 0
0.55 0.175 0
0.575 0.175 0
0.6 0.175 0
0.625 0.175 0
0.65 0.175 0
0.675 0.175 0
0.7 0.175 0
0.725 0.175 0
0.75 0.175 0
0.775 0.175 0
0.8 0.175 0
0.825 0.175 0
0.85 0.175 0
0.875 0.175 0
0.9 0.175 0
0.925 0.175 0
0.95 0.175 0
0.075 0.2 0
0.1 0.2 0
0.125 0.2 0
0.15 0.2 0
0.175 0.2 0
0.225 0.2 0
0.25 0.2 0
0.275 0.2 0
0.3 0.2 0
0.325 0.2 0
0.35 0.2 0
0.375 0.2 0
0.4 0.2 0
0.425 0.2 0
0.45 0.2 0
0.475 0.2 0
0.5 0.2 0
0.525 0.2 0
0.55 0.2 0
0.575 0.2 0
0.6 0.2 0
0.625 0.2 0
0.65 0.2 0
0.675 0.2 0
0.7 0.2 0
0.725 0.2 0
0.75 0.2 0
0.775 0.2 0
0.825 0.2 0
0.85 0.2 0
0.875 0.2 0
0.9 0.2 0
0.925 0.2 0
0.1 0.225 0
0.125 0.225 0
0.15 0.225 0
0.175 0.225 0
0.2 0.225 0
0.25 0.225 0
0.275 0.225 0
0.3 0.225 0
0.325 0.225 0
0.35 0.225 0
0.375 0.225 0
0.4 0.225 0
0.425 0.225 0
0.45 0.225 0
0.475 0.225 0
0.5 0.225 0
0.525 0.225 0
0.55 0.225 0
0.575 0.225 0
0.6 0.225 0
0.625 0.225 0
0.65 0.225 0
0.675 0.225 0
0.7 0.225 0
0.725 0.225 0
0.75 0.225 0
0.8 0.225 0
0.825 0.225 0
0.85 0.225 0
0.875 0.225 0
0.9 0.225 0
0.1 0.25 0
0.125 0.25 0
0.15 0.25 0
0.175 0.25 0
0.2 0.25 0
0.225 0.25 0
0.3 0.25 0
0.325 0.25 0
0.35 0.25 0
0.375 0.25 0
0.4 0.25 0
0.425 0.25 0
0.45 0.25 0
0.475 0.25 0
0.5 0.25 0
0.525 0.25 0
0.55 0.25 0
0.575 0.25 0
0.6 0.25 0
0.625 0.25 0
0.65 0.25 0
0.675 0.25 0
0.7 0.25 0
0.775 0.25 0
0.8 0.25 0
0.825 0.25 0
0.85 0.25 0
0.875 0.25 0
0.9 0.25 0
0.1 0.275 0
0.125 0.275 0
0.15 0.275 0
0.175 0.275 0
0.2 0.275 0
0.225 0.275 0
0.35 0.275 0
0.4 0.275 0
0.45 0.275 0
0.55 0.275 0
0.6 0.275 0
0.65 0.275 0
0.775 0.275 0
0.8 0.275 0
0.825 0.275 0
0.85 0.275 0
0.875 0.275 0
0.9 0.275 0
0.025 0.3 0
0.075 0.3 0
0.1 0.3 0
0.125 0.3 0
0.15 0.3 0
0.175 0.3 0
0.2 0.3 0
0.225 0.3 0
0.25 0.3 0
0.75 0.3 0
0.775 0.3 0
0.8 0.3 0
0.825 0.3 0
0.85 0.3 0
0.875 0.3 0
0.9 0.3 0
0.925 0.3 0
0.975 0.3 0
0 0.325 4
0.025 0.325 0
0.05 0.325 0
0.075 0.325 0
0.1 0.325 0
0.125 0.325 0
0.15 0.325 0
0.175 0.325 0
0.2 0.325 0
0.225 0.325 0
0.25 0.325 0
0.75 0.325 0
0.775 0.325 0
0.8 0.325 0
0.825 0.325 0
0.85 0.325 0
0.875 0.325 0
0.9 0.325 0
0.925 0.325 0
0.95 0.325 0
0.975 0.325 0
1 0.325 2
0 0.35 4
0.025 0.35 0
0.05 0.35 0
0.075 0.35 0
0.1 0.35 0
0.125 0.35 0
0.15 0.35 0
0.175 0.35 0
0.2 0.35 0
0.225 0.35 0
0.25 0.35 0
0.275 0.35 0
0.725 0.35 0
0.75 0.35 0
0.775 0.35 0
0.8 0.35 0
0.825 0.35 0
0.85 0.35 0
0.875 0.35 0
0.9 0.35 0
0.925 0.35 0
0.95 0.35 0
0.975 0.35 0
1 0.35 2
0 0.375 4
0.025 0.375 0
0.05 0.375 0
0.075 0.375 0
0.1 0.375 0
0.125 0.375 0
0.15 0.375 0
0.175 0.375 0
0.2 0.375 0
0.225 0.375 0
0.25 0.375 0
0.75 0.375 0
0.775 0.375 0
0.8 0.375 0
0.825 0.375 0
0.85 0.375 0
0.875 0.375 0
0.9 0.375 0
0.925 0.375 0
0.95 0.375 0
0.975 0.375 0
1 0.375 2
0.125 0.4 0
0.15 0.4 0
0.175 0.4 0
0.2 0.4 0
0.225 0.4 0
0.25 0.4 0
0.275 0.4 0
0.725 0.4 0
0.75 0.4 0
0.775 0.4 0
0.8 0.4 0
0.825 0.4 0
0.85 0.4 0
0.875 0.4 0
0.15 0.425 0
0.175 0.425 0
0.2 0.425 0
0.225 0.425 0
0.25 0.425 0
0.75 0.425 0
0.775 0.425 0
0.8 0.425 0
0.825 0.425 0
0.85 0.425 0
0.175 0.45 0
0.2 0.45 0
0.225 0.45 0
0.25 0.45 0
0.275 0.45 0
0.725 0.45 0
0.75 0.45 0
0.775 0.45 0
0.8 0.45 0
0.825 0.45 0
0.15 0.475 0
0.175 0.475 0
0.2 0.475 0
0.225 0.475 0
0.25 0.475 0
0.75 0.475 0
0.775 0.475 0
0.8 0.475 0
0.825 0.475 0
0.85 0.475 0
0.175 0.5 0
0.2 0.5 0
0.225 0.5 0
0.25 0.5 0
0.75 0.5 0
0.775 0.5 0
0.8 0.5 0
0.825 0.5 0
0.15 0.525 0
0.175 0.525 0
0.2 0.525 0
0.225 0.525 0
0.25 0.525 0
0.75 0.525 0
0.775 0.525 0
0.8 0.525 0
0.825 0.525 0
0.85 0.525 0
0.175 0.55 0
0.2 0.55 0
0.225 0.55 0
0.25 0.55 0
0.275 0.55 0
0.725 0.55 0
0.75 0.55 0
0.775 0.55 0
0.8 0.55 0
0.825 0.55 0
0.15 0.575 0
0.175 0.575 0
0.2 0.575 0
0.225 0.575 0
0.25 0.575 0
0.75 0.575 0
0.775 0.575 0
0.8 0.575 0
0.825 0.575 0
0.85 0.575 0
0.125 0.6 0
0.15 0.6 0
0.175 0.6 0
0.2 0.6 0
0.225 0.6 0
0.25 0.6 0
0.275 0.6 0
0.725 0.6 0
0.75 0.6 0
0.775 0.6 0
0.8 0.6 0
0.825 0.6 0
0.85 0.6 0
0.875 0.6 0
0 0.625 4
0.025 0.625 0
0.05 0.625 0
0.075 0.625 0
0.1 0.625 0
0.125 0.625 0
0.15 0.625 0
0.175 0.625 0
0.2 0.625 0
0.225 0.625 0
0.25 0.625 0
0.75 0.625 0
0.775 0.625 0
0.8 0.625 0
0.825 0.625 0
0.85 0.625 0
0.875 0.625 0
0.9 0.625 0
0.925 0.625 0
0.95 0.625 0
0.975 0.625 0
1 0.625 2
0 0.65 4
0.025 0.65 0
0.05 0.65 0
0.075 0.65 0
0.1 0.65 0
0.125 0.65 0
0.15 0.65 0
0.175 0.65 0
0.2 0.65 0
0.225 0.65 0
0.25 0.65 0
0.275 0.65 0
0.725 0.65 0
0.75 0.65 0
0.775 0.65 0
0.8 0.65 0
0.825 0.65 0
0.85 0.65 0
0.875 0.65 0
0.9 0.65 0
0.925 0.65 0
0.95 0.65 0
0.975 0.65 0
1 0.65 2
0 0.675 4
0.025 0.675 0
0.05 0.675 0
0.075 0.675 0
0.1 0.675 0
0.125 0.675 0
0.15 0.675 0
0.175 0.675 0
0.2 0.675 0
0.225 0.675 0
0.25 0.675 0
0.75 0.675 0
0.775 0.675 0
0.8 0.675 0
0.825 0.675 0
0.85 0.675 0
0.875 0.675 0
0.9 0.675 0
0.925 0.675 0
0.95 0.675 0
0.975 0.675 0
1 0.675 2
0.025 0.7 0
0.075 0.7 0
0.1 0.7 0
0.125 0.7 0
0.15 0.7 0
0.175 0.7 0
0.2 0.7 0
0.225 0.7 0
0.25 0.7 0
0.75 0.7 0
0.775 0.7 0
0.8 0.7 0
0.825 0.7 0
0.85 0.7 0
0.875 0.7 0
0.9 0.7 0
0.925 0.7 0
0.975 0.7 0
0.1 0.725 0
0.125 0.725 0
0.15 0.725 0
0.175 0.725 0
0.2 0.725 0
0.225 0.725 0
0.35 0.725 0
0.4 0.725 0
0.45 0.725 0
0.55 0.725 0
0.6 0.725 0
0.65 0.725 0
0.775 0.725 0
0.8 0.725 0
0.825 0.725 0
0.85 0.725 0
0.875 0.725 0
0.9 0.725 0
0.1 0.75 0
0.125 0.75 0
0.15 0.75 0
0.175 0.75 0
0.2 0.75 0
0.225 0.75 0
0.3 0.75 0
0.325 0.75 0
0.35 0.75 0
0.375 0.75 0
0.4 0.75 0
0.425 0.75 0
0.45 0.75 0
0.475 0.75 0
0.5 0.75 0
0.525 0.75 0
0.55 0.75 0
0.575 0.75 0
0.6 0.75 0
0.625 0.75 0
0.65 0.75 0
0.675 0.75 0
0.7 0.75 0
0.775 0.75 0
0.8 0.75 0
0.825 0.75 0
0.85 0.75 0
0.875 0.75 0
0.9 0.75 0
0.1 0.775 0
0.125 0.775 0
0.15 0.775 0
0.175 0.775 0
0.2 0.775 0
0.25 0.775 0
0.275 0.775 0
0.3 0.775 0
0.325 0.775 0
0.35 0.775 0
0.375 0.775 0
0.4 0.775 0
0.425 0.775 0
0.45 0.775 0
0.475 0.775 0
0.5 0.775 0
0.525 0.775 0
0.55 0.775 0
0.575 0.775 0
0.6 0.775 0
0.625 0.775 0
0.65 0.775 0
0.675 0.775 0
0.7 0.775 0
0.725 0.775 0
0.75 0.775 0
0.8 0.775 0
0.825 0.775 0
0.85 0.775 0
0.875 0.775 0
0.9 0.775 0
0.075 0.8 0
0.1 0.8 0
0.125 0.8 0
0.15 0.8 0
0.175 0.8 0
0.225 0.8 0
0.25 0.8 0
0.275 0.8 0
0.3 0.8 0
0.325 0.8 0
0.35 0.8 0
0.375 0.8 0
0.4 0.8 0
0.425 0.8 0
0.45 0.8 0
0.475 0.8 0
0.5 0.8 0
0.525 0.8 0
0.55 0.8 0
0.575 0.8 0
0.6 0.8 0
0.625 0.8 0
0.65 0.8 0
0.675 0.8 0
0.7 0.8 0
0.725 0.8 0
0.75 0.8 0
0.775 0.8 0
0.825 0.8 0
0.85 0.8 0
0.875 0.8 0
0.9 0.8 0
0.925 0.8 0
0.05 0.825 0
0.075 0.825 0
0.1 0.825 0
0.125 0.825 0
0.15 0.825 0
0.175 0.825 0
0.2 0.825 0
0.225 0.825 0
0.25 0.825 0
0.275 0.825 0
0.3 0.825 0
0.325 0.825 0
0.35 0.825 0
0.375 0.825 0
0.4 0.825 0
0.425 0.825 0
0.45 0.825 0
0.475 0.825 0
0.5 0.825 0
0.525 0.825 0
0.55 0.825 0
0.575 0.825 0
0.6 0.825 0
0.625 0.825 0
0.65 0.825 0
0.675 0.825 0
0.7 0.825 0
0.725 0.825 0
0.75 0.825 0
0.775 0.825 0
0.8 0.825 0
0.825 0.825 0
0.85 0.825 0
0.875 0.825 0
0.9 0.825 0
0.925 0.825 0
0.95 0.825 0
0.05 0.85 0
0.075 0.85 0
0.1 0.85 0
0.125 0.85 0
0.15 0.85 0
0.175 0.85 0
0.2 0.85 0
0.225 0.85 0
0.25 0.85 0
0.275 0.85 0
0.3 0.85 0
0.325 0.85 0
0.35 0.85 0
0.375 0.85 0
0.4 0.85 0
0.425 0.85 0
0.475 0.85 0
0.525 0.85 0
0.575 0.85 0
0.6 0.85 0
0.625 0.85 0
0.65 0.85 0
0.675 0.85 0
0.7 0.85 0
0.725 0.85 0
0.75 0.85 0
0.775 0.85 0
0.8 0.85 0
0.825 0.85 0
0.85 0.85 0
0.875 0.85 0
0.9 0.85 0
0.925 0.85 0
0.95 0.85 0
0 0.875 4
0.025 0.875 0
0.05 0.875 0
0.075 0.875 0
0.1 0.875 0
0.125 0.875 0
0.15 0.875 0
0.175 0.875 0
0.2 0.875 0
0.225 0.875 0
0.25 0.875 0
0.275 0.875 0
0.3 0.875 0
0.325 0.875 0
0.35 0.875 0
0.375 0.875 0
0.4 0.875 0
0.6 0.875 0
0.625 0.875 0
0.65 0.875 0
0.675 0.875 0
0.7 0.875 0
0.725 0.875 0
0.75 0.875 0
0.775 0.875 0
0.8 0.875 0
0.825 0.875 0
0.85 0.875 0
0.875 0.875 0
0.9 0.875 0
0.925 0.875 0
0.95 0.875 0
0.975 0.875 0
1 0.875 2
0 0.9 4
0.025 0.9 0
0.05 0.9 0
0.075 0.9 0
0.1 0.9 0
0.125 0.9 0
0.15 0.9 0
0.175 0.9 0
0.2 0.9 0
0.225 0.9 0
0.25 0.9 0
0.275 0.9 0
0.3 0.9 0
0.325 0.9 0
0.35 0.9 0
0.375 0.9 0
0.625 0.9 0
0.65 0.9 0
0.675 0.9 0
0.7 0.9 0
0.725 0.9 0
0.75 0.9 0
0.775 0.9 0
0.8 0.9 0
0.825 0.9 0
0.85 0.9 0
0.875 0.9 0
0.9 0.9 0
0.925 0.9 0
0.95 0.9 0
0.975 0.9 0
1 0.9 2
0 0.925 4
0.025 0.925 0
0.05 0.925 0
0.075 0.925 0
0.1 0.925 0
0.125 0.925 0
0.15 0.925 0
0.175 0.925 0
0.2 0.925 0
0.3 0.925 0
0.325 0.925 0
0.35 0.925 0
0.375 0.925 0
0.625 0.925 0
0.65 0.925 0
0.675 0.925 0
0.7 0.925 0
0.8 0.925 0
0.825 0.925 0
0.85 0.925 0
0.875 0.925 0
0.9 0.925 0
0.925 0.925 0
0.95 0.925 0
0.975 0.925 0
1 0.925 2
0.025 0.95 0
0.05 0.95 0
0.075 0.95 0
0.1 0.95 0
0.125 0.95 0
0.15 0.95 0
0.175 0.95 0
0.325 0.95 0
0.35 0.95 0
0.375 0.95 0
0.625 0.95 0
0.65 0.95 0
0.675 0.95 0
0.825 0.95 0
0.85 0.95 0
0.875 0.95 0
0.9 0.95 0
0.925 0.95 0
0.95 0.95 0
0.975 0.95 0
0.05 0.975 0
0.075 0.975 0
0.1 0.975 0
0.125 0.975 0
0.3 0.975 0
0.325 0.975 0
0.35 0.975 0
0.375 0.975 0
0.625 0.975 0
0.65 0.975 0
0.675 0.975 0
0.7 0.975 0
0.875 0.975 0
0.9 0.975 0
0.925 0.975 0
0.95 0.975 0
0.075 1 3
0.1 1 3
0.125 1 3
0.325 1 3
0.35 1 3
0.375 1 3
0.625 1 3
0.65 1 3
0.675 1 3
0.875 1 3
0.9 1 3
0.925 1 3
1 2 15 0
1 15 14 0
2 3 15 0
17 4 18 0
4 5 19 0
4 19 18 0
5 6 19 0
19 6 20 0
7 8 22 0
7 22 21 0
8 9 22 0
22 9 23 0
9 24 23 0
10 11 26 0
11 12 26 0
26 12 27 0
13 14 31 0
14 15 31 0
31 15 32 0
15 16 33 0
15 33 32 0
17 18 36 0
18 19 36 0
36 19 37 0
19 20 38 0
19 38 37 0
21 22 39 0
39 22 40 0
22 23 41 0
22 41 40 0
23 24 41 0
25 26 44 0
44 26 45 0
26 27 46 0
26 46 45 0
27 28 46 0
29 51 50 0
30 31 51 0
51 31 52 0
31 32 53 0
31 53 52 0
32 33 53 0
53 33 54 0
33 34 55 0
33 55 54 0
55 35 56 0
58 36 59 0
36 37 60 0
36 60 59 0
37 38 60 0
60 38 61 0
39 40 63 0
39 63 62 0
40 41 63 0
63 41 64 0
41 65 64 0
42 68 67 0
43 44 68 0
68 44 69 0
44 45 70 0
44 70 69 0
45 46 70 0
70 46 71 0
46 47 72 0
46 72 71 0
72 48 73 0
49 50 76 0
49 76 75 0
50 51 76 0
76 51 77 0
51 52 78 0
51 78 77 0
52 53 78 0
78 53 79 0
53 54 80 0
53 80 79 0
54 55 80 0
80 55 81 0
55 56 82 0
55 82 81 0
56 57 82 0
82 57 83 0
57 84 83 0
58 59 88 0
59 60 88 0
88 60 89 0
60 61 90 0
60 90 89 0
62 63 91 0
91 63 92 0
63 64 93 0
63 93 92 0
64 65 93 0
97 66 98 0
66 67 99 0
66 99 98 0
67 68 99 0
99 68 100 0
68 69 101 0
68 101 100 0
69 70 101 0
101 70 102 0
70 71 103 0
70 103 102 0
71 72 103 0
103 72 104 0
72 73 105 0
72 105 104 0
73 74 105 0
105 74 106 0
75 76 107 0
76 77 109 0
76 109 108 0
77 78 109 0
109 78 110 0
78 79 111 0
78 111 110 0
79 80 111 0
111 80 112 0
80 81 113 0
80 113 112 0
81 82 113 0
113 82 114 0
82 83 115 0
82 115 114 0
83 84 115 0
115 84 116 0
84 85 117 0
84 117 116 0
117 86 118 0
86 119 118 0
87 88 119 0
119 88 120 0
88 89 121 0
88 121 120 0
89 90 121 0
121 90 122 0
90 123 122 0
124 91 125 0
91 92 126 0
91 126 125 0
92 93 126 0
126 93 127 0
93 94 128 0
93 128 127 0
128 95 129 0
95 130 129 0
96 97 130 0
130 97 131 0
97 98 132 0
97 132 131 0
98 99 132 0
132 99 133 0
99 100 134 0
99 134 133 0
100 101 134 0
134 101 135 0
101 102 136 0
101 136 135 0
102 103 136 0
136 103 137 0
103 104 138 0
103 138 137 0
104 105 138 0
138 105 139 0
105 106 140 0
109 110 142 0
109 142 141 0
110 111 142 0
142 111 143 0
111 112 144 0
111 144 143 0
112 113 144 0
144 113 145 0
113 114 146 0
113 146 145 0
114 115 146 0
146 115 147 0
115 116 148 0
115 148 147 0
116 117 148 0
148 117 149 0
117 118 150 0
117 150 149 0
118 119 150 0
150 119 151 0
119 120 152 0
119 152 151 0
120 121 152 0
152 121 153 0
121 122 154 0
121 154 153 0
122 123 154 0
124 125 161 0
125 126 161 0
161 126 162 0
126 127 163 0
126 163 162 0
127 128 163 0
163 128 164 0
128 129 165 0
128 165 164 0
129 130 165 0
165 130 166 0
130 131 167 0
130 167 166 0
131 132 167 0
167 132 168 0
132 133 169 0
132 169 168 0
133 134 169 0
169 134 170 0
134 135 171 0
134 171 170 0
135 136 171 0
171 136 172 0
136 137 173 0
136 173 172 0
137 138 173 0
173 138 174 0
175 142 176 0
142 143 177 0
142 177 176 0
143 144 177 0
177 144 178 0
144 145 179 0
144 179 178 0
145 146 179 0
179 146 180 0
146 147 181 0
146 181 180 0
147 148 181 0
181 148 182 0
148 149 183 0
148 183 182 0
149 150 183 0
183 150 184 0
150 151 185 0
150 185 184 0
151 152 185 0
185 152 186 0
152 153 187 0
152 187 186 0
153 154 187 0
187 154 188 0
154 155 189 0
154 189 188 0
189 156 190 0
156 191 190 0
191 157 192 0
157 193 192 0
193 158 194 0
158 195 194 0
195 159 196 0
159 197 196 0
160 161 197 0
197 161 198 0
161 162 199 0
161 199 198 0
162 163 199 0
199 163 200 0
163 164 201 0
163 201 200 0
164 165 201 0
201 165 202 0
165 166 203 0
165 203 202 0
166 167 203 0
203 167 204 0
167 168 205 0
167 205 204 0
168 169 205 0
205 169 206 0
169 170 207 0
169 207 206 0
170 171 207 0
207 171 208 0
171 172 209 0
171 209 208 0
172 173 209 0
209 173 210 0
173 211 210 0
176 177 212 0
212 177 213 0
177 178 214 0
177 214 213 0
178 179 214 0
214 179 215 0
179 180 216 0
179 216 215 0
180 181 216 0
181 182 217 0
182 183 217 0
217 183 218 0
183 184 219 0
183 219 218 0
184 185 219 0
219 185 220 0
185 186 221 0
185 221 220 0
186 187 221 0
221 187 222 0
187 188 223 0
187 223 222 0
188 189 223 0
223 189 224 0
189 190 225 0
189 225 224 0
190 191 225 0
225 191 226 0
191 192 227 0
191 227 226 0
192 193 227 0
227 193 228 0
193 194 229 0
193 229 228 0
194 195 229 0
229 195 230 0
195 196 231 0
195 231 230 0
196 197 231 0
231 197 232 0
197 198 233 0
197 233 232 0
198 199 233 0
233 199 234 0
199 200 235 0
199 235 234 0
200 201 235 0
235 201 236 0
201 202 237 0
201 237 236 0
202 203 237 0
237 203 238 0
203 204 239 0
203 239 238 0
204 205 239 0
205 206 240 0
206 207 240 0
240 207 241 0
207 208 242 0
207 242 241 0
208 209 242 0
242 209 243 0
209 210 244 0
209 244 243 0
212 213 245 0
213 214 245 0
245 214 246 0
214 215 247 0
214 247 246 0
215 216 247 0
247 216 248 0
216 249 248 0
218 219 250 0
250 219 251 0
219 220 252 0
219 252 251 0
220 221 252 0
252 221 253 0
221 222 254 0
221 254 253 0
222 223 254 0
254 223 255 0
223 224 256 0
223 256 255 0
224 225 256 0
256 225 257 0
225 226 258 0
225 258 257 0
226 227 258 0
258 227 259 0
227 228 260 0
227 260 259 0
228 229 260 0
260 229 261 0
229 230 262 0
229 262 261 0
230 231 262 0
262 231 263 0
231 232 264 0
231 264 263 0
232 233 264 0
264 233 265 0
233 234 266 0
233 266 265 0
234 235 266 0
266 235 267 0
235 236 268 0
235 268 267 0
236 237 268 0
268 237 269 0
237 238 270 0
237 270 269 0
271 240 272 0
240 241 273 0
240 273 272 0
241 242 273 0
273 242 274 0
242 243 275 0
242 275 274 0
243 244 275 0
245 246 277 0
245 277 276 0
246 247 277 0
277 247 278 0
247 248 279 0
247 279 278 0
248 249 279 0
279 249 280 0
252 253 283 0
252 283 282 0
253 254 283 0
283 254 284 0
254 255 285 0
254 285 284 0
255 256 285 0
285 256 286 0
256 257 287 0
256 287 286 0
257 258 287 0
287 258 288 0
258 259 289 0
258 289 288 0
259 260 289 0
289 260 290 0
260 261 291 0
260 291 290 0
261 262 291 0
291 262 292 0
262 263 293 0
262 293 292 0
263 264 293 0
293 264 294 0
264 265 295 0
264 295 294 0
265 266 295 0
295 266 296 0
266 267 297 0
266 297 296 0
267 268 297 0
297 268 298 0
271 272 301 0
271 301 300 0
272 273 301 0
301 273 302 0
273 274 303 0
273 303 302 0
274 275 303 0
303 275 304 0
305 277 306 0
277 278 307 0
277 307 306 0
278 279 307 0
307 279 308 0
279 280 309 0
279 309 308 0
280 281 309 0
309 281 310 0
283 284 311 0
284 285 311 0
285 286 312 0
286 287 312 0
287 288 313 0
292 293 314 0
293 294 315 0
294 295 315 0
295 296 316 0
296 297 316 0
299 300 318 0
299 318 317 0
300 301 318 0
318 301 319 0
301 302 320 0
301 320 319 0
302 303 320 0
320 303 321 0
303 322 321 0
305 306 326 0
306 307 326 0
326 307 327 0
307 308 328 0
307 328 327 0
308 309 328 0
328 309 329 0
309 310 330 0
309 330 329 0
317 318 333 0
333 318 334 0
318 319 335 0
318 335 334 0
319 320 335 0
335 320 336 0
320 321 337 0
320 337 336 0
321 322 337 0
341 323 342 0
323 343 342 0
343 324 344 0
324 345 344 0
325 326 345 0
345 326 346 0
326 327 347 0
326 347 346 0
327 328 347 0
347 328 348 0
328 329 349 0
328 349 348 0
329 330 349 0
349 330 350 0
330 331 351 0
330 351 350 0
332 333 352 0
352 333 353 0
333 334 354 0
333 354 353 0
334 335 354 0
354 335 355 0
335 336 356 0
335 356 355 0
336 337 356 0
356 337 357 0
337 338 358 0
337 358 357 0
358 339 359 0
339 360 359 0
360 340 361 0
340 362 361 0
341 342 364 0
341 364 363 0
342 343 364 0
364 343 365 0
343 344 366 0
343 366 365 0
344 345 366 0
366 345 367 0
345 346 368 0
345 368 367 0
346 347 368 0
368 347 369 0
347 348 370 0
347 370 369 0
348 349 370 0
370 349 371 0
349 350 372 0
349 372 371 0
350 351 372 0
372 351 373 0
351 374 373 0
375 352 376 0
352 353 377 0
352 377 376 0
353 354 377 0
377 354 378 0
354 355 379 0
354 379 378 0
355 356 379 0
379 356 380 0
356 357 381 0
356 381 380 0
357 358 381 0
381 358 382 0
358 359 383 0
358 383 382 0
359 360 383 0
383 360 384 0
360 361 385 0
360 385 384 0
361 362 385 0
385 362 386 0
363 364 387 0
387 364 388 0
364 365 389 0
364 389 388 0
365 366 389 0
389 366 390 0
366 367 391 0
366 391 390 0
367 368 391 0
391 368 392 0
368 369 393 0
368 393 392 0
369 370 393 0
393 370 394 0
370 371 395 0
370 395 394 0
371 372 395 0
395 372 396 0
372 373 397 0
372 397 396 0
373 374 397 0
375 376 398 0
376 377 398 0
398 377 399 0
377 378 400 0
377 400 399 0
378 379 400 0
400 379 401 0
379 380 402 0
379 402 401 0
380 381 402 0
402 381 403 0
381 382 404 0
381 404 403 0
382 383 404 0
404 383 405 0
383 384 406 0
383 406 405 0
384 385 406 0
406 385 407 0
385 386 408 0
385 408 407 0
391 392 409 0
392 393 409 0
393 394 411 0
393 411 410 0
394 395 411 0
411 395 412 0
395 396 413 0
395 413 412 0
396 397 413 0
413 397 414 0
397 415 414 0
416 398 417 0
398 399 418 0
398 418 417 0
399 400 418 0
418 400 419 0
400 401 420 0
400 420 419 0
401 402 420 0
420 402 421 0
402 403 422 0
403 404 422 0
423 411 424 0
411 412 425 0
411 425 424 0
412 413 425 0
425 413 426 0
413 414 427 0
413 427 426 0
414 415 427 0
416 417 428 0
417 418 428 0
428 418 429 0
418 419 430 0
418 430 429 0
419 420 430 0
430 420 431 0
420 432 431 0
423 424 433 0
424 425 433 0
433 425 434 0
425 426 435 0
425 435 434 0
426 427 435 0
435 427 436 0
427 437 436 0
438 428 439 0
428 429 440 0
428 440 439 0
429 430 440 0
440 430 441 0
430 431 442 0
430 442 441 0
431 432 442 0
443 433 444 0
433 434 445 0
433 445 444 0
434 435 445 0
445 435 446 0
435 436 447 0
435 447 446 0
439 440 448 0
448 440 449 0
440 441 450 0
440 450 449 0
441 442 450 0
450 442 451 0
442 452 451 0
443 444 453 0
444 445 453 0
453 445 454 0
445 446 455 0
445 455 454 0
446 447 455 0
455 447 456 0
448 449 458 0
448 458 457 0
449 450 458 0
458 450 459 0
450 451 460 0
450 460 459 0
451 452 460 0
461 453 462 0
453 454 463 0
453 463 462 0
454 455 463 0
463 455 464 0
455 456 465 0
455 465 464 0
457 458 466 0
466 458 467 0
458 459 468 0
458 468 467 0
459 460 468 0
468 460 469 0
460 470 469 0
461 462 471 0
462 463 471 0
471 463 472 0
463 464 473 0
463 473 472 0
464 465 473 0
473 465 474 0
466 467 478 0
466 478 477 0
467 468 478 0
478 468 479 0
468 469 480 0
468 480 479 0
469 470 480 0
481 471 482 0
471 472 483 0
471 483 482 0
472 473 483 0
483 473 484 0
473 474 485 0
473 485 484 0
474 475 485 0
476 477 486 0
477 478 486 0
486 478 487 0
478 479 488 0
478 488 487 0
479 480 488 0
488 480 489 0
480 490 489 0
481 482 493 0
482 483 493 0
493 483 494 0
483 484 495 0
483 495 494 0
484 485 495 0
495 485 496 0
485 497 496 0
498 486 499 0
486 487 500 0
486 500 499 0
487 488 500 0
500 488 501 0
488 489 502 0
488 502 501 0
489 490 502 0
509 491 510 0
491 511 510 0
492 493 511 0
511 493 512 0
493 494 513 0
493 513 512 0
494 495 513 0
513 495 514 0
495 496 515 0
495 515 514 0
496 497 515 0
498 499 516 0
499 500 516 0
516 500 517 0
500 501 518 0
500 518 517 0
501 502 518 0
518 502 519 0
502 503 520 0
502 520 519 0
520 504 521 0
504 522 521 0
505 506 528 0
505 528 527 0
506 507 528 0
528 507 529 0
507 508 530 0
507 530 529 0
508 509 530 0
530 509 531 0
509 510 532 0
509 532 531 0
510 511 532 0
532 511 533 0
511 512 534 0
511 534 533 0
512 513 534 0
534 513 535 0
513 514 536 0
513 536 535 0
514 515 536 0
536 515 537 0
515 538 537 0
539 516 540 0
516 517 541 0
516 541 540 0
517 518 541 0
541 518 542 0
518 519 543 0
518 543 542 0
519 520 543 0
543 520 544 0
520 521 545 0
520 545 544 0
521 522 545 0
545 522 546 0
522 523 547 0
522 547 546 0
523 524 547 0
547 524 548 0
524 525 549 0
524 549 548 0
525 526 549 0
549 526 550 0
527 528 551 0
551 528 552 0
528 529 553 0
528 553 552 0
529 530 553 0
553 530 554 0
530 531 555 0
530 555 554 0
531 532 555 0
555 532 556 0
532 533 557 0
532 557 556 0
533 534 557 0
557 534 558 0
534 535 559 0
534 559 558 0
535 536 559 0
559 536 560 0
536 537 561 0
536 561 560 0
537 538 561 0
539 540 562 0
540 541 562 0
562 541 563 0
541 542 564 0
541 564 563 0
542 543 564 0
564 543 565 0
543 544 566 0
543 566 565 0
544 545 566 0
566 545 567 0
545 546 568 0
545 568 567 0
546 547 568 0
568 547 569 0
547 548 570 0
547 570 569 0
548 549 570 0
570 549 571 0
549 550 572 0
549 572 571 0
551 552 573 0
552 553 573 0
553 554 574 0
554 555 574 0
555 556 576 0
555 576 575 0
556 557 576 0
576 557 577 0
557 558 578 0
557 578 577 0
558 559 578 0
578 559 579 0
559 560 580 0
559 580 579 0
560 561 580 0
580 561 581 0
562 563 583 0
562 583 582 0
563 564 583 0
583 564 584 0
564 565 585 0
564 585 584 0
565 566 585 0
585 566 586 0
566 567 587 0
566 587 586 0
567 568 587 0
587 568 588 0
568 569 589 0
569 570 589 0
570 571 590 0
571 572 590 0
591 576 592 0
576 577 593 0
576 593 592 0
577 578 593 0
593 578 594 0
578 579 595 0
578 595 594 0
579 580 595 0
595 580 596 0
583 584 604 0
583 604 603 0
584 585 604 0
604 585 605 0
585 586 606 0
585 606 605 0
586 587 606 0
606 587 607 0
587 608 607 0
591 592 610 0
592 593 610 0
610 593 611 0
593 594 612 0
593 612 611 0
594 595 612 0
612 595 613 0
595 596 614 0
595 614 613 0
616 597 617 0
597 618 617 0
618 598 619 0
598 620 619 0
620 599 621 0
600 626 625 0
626 601 627 0
601 628 627 0
628 602 629 0
602 630 629 0
603 604 632 0
632 604 633 0
604 605 634 0
604 634 633 0
605 606 634 0
634 606 635 0
606 607 636 0
606 636 635 0
607 608 636 0
609 610 638 0
638 610 639 0
610 611 640 0
610 640 639 0
611 612 640 0
640 612 641 0
612 613 642 0
612 642 641 0
615 616 645 0
645 616 646 0
616 617 647 0
616 647 646 0
617 618 647 0
647 618 648 0
618 619 649 0
618 649 648 0
619 620 649 0
649 620 650 0
620 621 651 0
620 651 650 0
621 622 651 0
651 622 652 0
622 623 653 0
622 653 652 0
623 624 653 0
653 624 654 0
624 625 655 0
624 655 654 0
625 626 655 0
655 626 656 0
626 627 657 0
626 657 656 0
627 628 657 0
657 628 658 0
628 629 659 0
628 659 658 0
629 630 659 0
659 630 660 0
630 631 661 0
630 661 660 0
633 634 664 0
664 634 665 0
634 635 666 0
634 666 665 0
635 636 666 0
666 636 667 0
636 637 668 0
636 668 667 0
669 638 670 0
638 639 671 0
638 671 670 0
639 640 671 0
671 640 672 0
640 641 673 0
640 673 672 0
641 642 673 0
643 644 676 0
643 676 675 0
644 645 676 0
676 645 677 0
645 646 678 0
645 678 677 0
646 647 678 0
678 647 679 0
647 648 680 0
647 680 679 0
648 649 680 0
680 649 681 0
649 650 682 0
649 682 681 0
650 651 682 0
682 651 683 0
651 652 684 0
651 684 683 0
652 653 684 0
684 653 685 0
653 654 686 0
653 686 685 0
654 655 686 0
686 655 687 0
655 656 688 0
655 688 687 0
656 657 688 0
688 657 689 0
657 658 690 0
657 690 689 0
658 659 690 0
690 659 691 0
659 660 692 0
659 692 691 0
660 661 692 0
692 661 693 0
661 662 694 0
661 694 693 0
662 663 694 0
694 663 695 0
664 665 697 0
665 666 697 0
697 666 698 0
666 667 699 0
666 699 698 0
667 668 699 0
699 668 700 0
668 701 700 0
669 670 704 0
669 704 703 0
670 671 704 0
704 671 705 0
671 672 706 0
671 706 705 0
672 673 706 0
706 673 707 0
673 708 707 0
708 674 709 0
674 675 710 0
674 710 709 0
675 676 710 0
710 676 711 0
676 677 712 0
676 712 711 0
677 678 712 0
712 678 713 0
678 679 714 0
678 714 713 0
679 680 714 0
714 680 715 0
680 681 716 0
680 716 715 0
681 682 716 0
716 682 717 0
682 683 718 0
682 718 717 0
683 684 718 0
718 684 719 0
684 685 720 0
684 720 719 0
685 686 720 0
720 686 721 0
686 687 722 0
686 722 721 0
687 688 722 0
722 688 723 0
688 689 724 0
688 724 723 0
689 690 724 0
724 690 725 0
690 691 726 0
690 726 725 0
691 692 726 0
726 692 727 0
692 693 728 0
692 728 727 0
693 694 728 0
728 694 729 0
694 695 730 0
694 730 729 0
695 696 730 0
730 696 731 0
696 732 731 0
732 697 733 0
697 698 734 0
697 734 733 0
698 699 734 0
734 699 735 0
699 700 736 0
699 736 735 0
700 701 736 0
736 701 737 0
702 703 740 0
703 704 740 0
740 704 741 0
704 705 742 0
704 742 741 0
705 706 742 0
742 706 743 0
706 707 744 0
706 744 743 0
707 708 744 0
744 708 745 0
708 709 746 0
708 746 745 0
709 710 746 0
746 710 747 0
710 711 748 0
710 748 747 0
711 712 748 0
748 712 749 0
712 713 750 0
712 750 749 0
713 714 750 0
750 714 751 0
714 715 752 0
714 752 751 0
715 716 752 0
752 716 753 0
716 717 754 0
717 718 754 0
718 719 755 0
719 720 755 0
720 721 756 0
721 722 756 0
722 723 757 0
723 724 757 0
724 725 759 0
724 759 758 0
725 726 759 0
759 726 760 0
726 727 761 0
726 761 760 0
727 728 761 0
761 728 762 0
728 729 763 0
728 763 762 0
729 730 763 0
763 730 764 0
730 731 765 0
730 765 764 0
731 732 765 0
765 732 766 0
732 733 767 0
732 767 766 0
733 734 767 0
767 734 768 0
734 735 769 0
734 769 768 0
735 736 769 0
769 736 770 0
736 737 771 0
736 771 770 0
737 738 771 0
739 740 775 0
775 740 776 0
740 741 777 0
740 777 776 0
741 742 777 0
777 742 778 0
742 743 779 0
742 779 778 0
743 744 779 0
779 744 780 0
744 745 781 0
744 781 780 0
745 746 781 0
781 746 782 0
746 747 783 0
746 783 782 0
747 748 783 0
783 748 784 0
748 749 785 0
748 785 784 0
749 750 785 0
785 750 786 0
750 751 787 0
750 787 786 0
751 752 787 0
787 752 788 0
752 789 788 0
790 759 791 0
759 760 792 0
759 792 791 0
760 761 792 0
792 761 793 0
761 762 794 0
761 794 793 0
762 763 794 0
794 763 795 0
763 764 796 0
763 796 795 0
764 765 796 0
796 765 797 0
765 766 798 0
765 798 797 0
766 767 798 0
798 767 799 0
767 768 800 0
767 800 799 0
768 769 800 0
800 769 801 0
769 770 802 0
769 802 801 0
770 771 802 0
802 771 803 0
771 772 804 0
771 804 803 0
773 808 807 0
774 775 808 0
808 775 809 0
775 776 810 0
775 810 809 0
776 777 810 0
810 777 811 0
777 778 812 0
777 812 811 0
778 779 812 0
812 779 813 0
779 780 814 0
779 814 813 0
780 781 814 0
814 781 815 0
781 782 816 0
781 816 815 0
782 783 816 0
816 783 817 0
783 784 818 0
784 785 818 0
785 786 820 0
785 820 819 0
786 787 820 0
820 787 821 0
787 788 822 0
787 822 821 0
788 789 822 0
790 791 823 0
791 792 823 0
823 792 824 0
792 793 825 0
792 825 824 0
793 794 825 0
825 794 826 0
794 795 827 0
795 796 827 0
796 797 829 0
796 829 828 0
797 798 829 0
829 798 830 0
798 799 831 0
798 831 830 0
799 800 831 0
831 800 832 0
800 801 833 0
800 833 832 0
801 802 833 0
833 802 834 0
802 803 835 0
802 835 834 0
803 804 835 0
835 804 836 0
804 805 837 0
804 837 836 0
837 806 838 0
807 808 839 0
839 808 840 0
808 809 841 0
808 841 840 0
809 810 841 0
841 810 842 0
810 811 843 0
810 843 842 0
811 812 843 0
843 812 844 0
812 813 845 0
812 845 844 0
813 814 845 0
845 814 846 0
814 815 847 0
814 847 846 0
815 816 847 0
848 820 849 0
820 821 850 0
820 850 849 0
821 822 850 0
850 822 851 0
823 824 853 0
823 853 852 0
824 825 853 0
853 825 854 0
825 855 854 0
829 830 856 0
830 831 856 0
856 831 857 0
831 832 858 0
831 858 857 0
832 833 858 0
858 833 859 0
833 834 860 0
833 860 859 0
834 835 860 0
860 835 861 0
835 836 862 0
835 862 861 0
836 837 862 0
862 837 863 0
837 838 864 0
837 864 863 0
840 841 865 0
841 842 867 0
841 867 866 0
842 843 867 0
867 843 868 0
843 844 869 0
843 869 868 0
844 845 869 0
869 845 870 0
845 846 871 0
848 849 872 0
849 850 872 0
872 850 873 0
850 851 874 0
850 874 873 0
852 853 875 0
875 853 876 0
853 854 877 0
853 877 876 0
854 855 877 0
857 858 878 0
858 859 880 0
858 880 879 0
859 860 880 0
880 860 881 0
860 861 882 0
860 882 881 0
861 862 882 0
882 862 883 0
862 863 884 0
885 867 886 0
867 868 887 0
867 887 886 0
868 869 887 0
887 869 888 0
889 872 890 0
872 873 891 0
872 891 890 0
873 874 891 0
891 874 892 0
875 876 894 0
875 894 893 0
876 877 894 0
894 877 895 0
877 896 895 0
880 881 898 0
880 898 897 0
881 882 898 0
898 882 899 0
882 900 899 0
886 887 901 0
901 887 902 0
887 903 902 0
889 890 904 0
890 891 904 0
904 891 905 0
891 892 906 0
891 906 905 0
893 894 907 0
907 894 908 0
894 895 909 0
894 909 908 0
895 896 909 0
910 898 911 0
898 899 912 0
898 912 911 0
1 2 1
14 1 5
3 15 5
2 3 1
17 4 5
4 5 1
5 6 1
6 20 5
7 8 1
21 7 5
8 9 1
9 24 5
26 10 5
10 11 1
11 12 1
12 27 5
31 13 5
13 14 5
16 33 5
15 16 5
36 17 5
20 38 5
39 21 5
24 41 5
44 25 5
25 26 5
28 46 5
27 28 5
50 29 5
29 51 5
51 30 5
30 31 5
34 55 5
33 34 5
35 56 5
55 35 5
58 36 5
38 61 5
62 39 5
41 65 5
67 42 5
42 68 5
68 43 5
43 44 5
47 72 5
46 47 5
48 73 5
72 48 5
49 50 5
75 49 4
56 57 5
57 84 5
88 58 5
61 90 5
91 62 5
65 93 5
97 66 5
66 67 5
73 74 5
74 106 2
76 107 5
107 75 4
109 108 5
108 76 5
85 117 5
84 85 5
117 86 5
86 119 5
119 87 5
87 88 5
90 123 5
124 91 5
94 128 5
93 94 5
128 95 5
95 130 5
130 96 5
96 97 5
105 139 5
139 138 5
106 140 2
140 105 5
142 141 5
141 109 5
123 154 5
161 124 5
138 174 5
174 173 5
176 175 5
175 142 5
155 189 5
154 155 5
189 156 5
156 191 5
191 157 5
157 193 5
193 158 5
158 195 5
195 159 5
159 197 5
197 160 5
160 161 5
211 210 5
173 211 5
212 176 5
181 216 5
217 181 5
218 217 5
239 238 5
205 239 5
240 205 5
210 244 5
245 212 5
216 249 5
250 218 5
251 250 5
252 251 5
269 268 5
238 270 5
270 269 5
271 240 5
244 275 5
277 276 5
276 245 5
249 280 5
283 282 5
282 252 5
289 288 5
290 289 5
291 290 5
292 291 5
268 298 5
298 297 5
300 271 5
275 304 5
304 303 5
305 277 5
280 281 5
281 310 5
311 283 5
285 311 5
312 285 5
287 312 5
288 313 5
313 287 5
293 314 5
314 292 5
315 293 5
295 315 5
316 295 5
297 316 5
299 300 5
317 299 5
303 322 5
326 305 5
310 330 5
333 317 5
322 337 5
341 323 5
323 343 5
343 324 5
324 345 5
345 325 5
325 326 5
331 351 5
330 331 5
352 332 5
332 333 5
338 358 5
337 338 5
358 339 5
339 360 5
360 340 5
340 362 5
363 341 4
351 374 5
375 352 5
362 386 2
387 363 4
388 387 5
389 388 5
390 389 5
391 390 5
374 397 5
398 375 5
405 404 5
406 405 5
407 406 5
386 408 2
408 407 5
409 391 5
393 409 5
411 410 5
410 393 5
397 415 5
416 398 5
402 421 5
421 420 5
422 402 5
404 422 5
423 411 5
415 427 5
428 416 5
420 432 5
433 423 5
437 436 5
427 437 5
439 438 5
438 428 5
432 442 5
443 433 5
436 447 5
448 439 5
442 452 5
453 443 5
447 456 5
457 448 5
452 460 5
461 453 5
456 465 5
466 457 5
460 470 5
471 461 5
465 474 5
477 466 5
470 480 5
481 471 5
475 485 5
474 475 5
486 476 5
476 477 5
480 490 5
493 481 5
485 497 5
498 486 5
490 502 5
509 491 5
491 511 5
511 492 5
492 493 5
497 515 5
516 498 5
503 520 5
502 503 5
520 504 5
504 522 5
505 506 5
527 505 4
506 507 5
507 508 5
508 509 5
515 538 5
539 516 5
522 523 5
523 524 5
524 525 5
525 526 5
526 550 2
551 527 4
538 561 5
562 539 5
550 572 2
573 551 5
553 573 5
574 553 5
555 574 5
576 575 5
575 555 5
561 581 5
581 580 5
583 582 5
582 562 5
568 588 5
588 587 5
589 568 5
570 589 5
590 570 5
572 590 5
591 576 5
580 596 5
603 583 5
587 608 5
610 591 5
596 614 5
614 613 5
616 597 5
597 618 5
618 598 5
598 620 5
599 621 5
620 599 5
625 600 5
600 626 5
626 601 5
601 628 5
628 602 5
602 630 5
632 603 5
633 632 5
608 636 5
638 609 5
609 610 5
613 642 5
645 615 5
615 616 5
621 622 5
622 623 5
623 624 5
624 625 5
631 661 5
630 631 5
664 633 5
637 668 5
636 637 5
669 638 5
642 673 5
643 644 5
675 643 5
644 645 5
661 662 5
662 663 5
663 695 5
697 664 5
668 701 5
703 669 5
673 708 5
708 674 5
674 675 5
695 696 5
696 732 5
732 697 5
701 737 5
740 702 5
702 703 5
716 753 5
753 752 5
754 716 5
718 754 5
755 718 5
720 755 5
756 720 5
722 756 5
757 722 5
724 757 5
759 758 5
758 724 5
738 771 5
737 738 5
775 739 5
739 740 5
752 789 5
790 759 5
772 804 5
771 772 5
807 773 4
773 808 5
808 774 5
774 775 5
783 817 5
817 816 5
818 783 5
785 818 5
820 819 5
819 785 5
789 822 5
823 790 5
794 826 5
826 825 5
827 794 5
796 827 5
829 828 5
828 796 5
805 837 5
804 805 5
806 838 2
837 806 5
839 807 4
840 839 5
847 846 5
816 847 5
848 820 5
822 851 5
852 823 5
825 855 5
856 829 5
857 856 5
838 864 2
864 863 5
841 865 5
865 840 5
867 866 5
866 841 5
845 870 5
870 869 5
846 871 5
871 845 5
872 848 5
851 874 5
875 852 5
855 877 5
858 878 5
878 857 5
880 879 5
879 858 5
862 883 5
883 882 5
863 884 5
884 862 5
886 885 5
885 867 5
869 888 5
888 887 5
889 872 5
874 892 5
893 875 5
877 896 5
898 897 5
897 880 5
900 899 5
882 900 5
901 886 5
902 901 3
903 902 3
887 903 5
904 889 5
905 904 3
892 906 5
906 905 3
907 893 5
908 907 3
909 908 3
896 909 5
911 910 3
910 898 5
899 912 5
912 911 3
